<svg width="102" height="102" viewBox="0 0 102 102" fill="none" xmlns="http://www.w3.org/2000/svg">
<path d="M96.6351 45.9C95.2825 45.9 93.9853 46.4373 93.0288 47.3938C92.0724 48.3502 91.5351 49.6474 91.5351 51C91.5351 61.8208 87.2365 72.1985 79.585 79.85C71.9336 87.5014 61.5559 91.8 50.7351 91.8C42.6775 91.7963 34.8015 89.4069 28.1001 84.933C21.3987 80.4592 16.172 74.1012 13.0791 66.6609C9.98627 59.2206 9.16572 51.0311 10.7209 43.125C12.2762 35.219 16.1375 27.9505 21.8181 22.236C25.5957 18.4079 30.0988 15.3716 35.0641 13.3049C40.0293 11.2383 45.3569 10.1827 50.7351 10.2C53.9963 10.2204 57.2455 10.5966 60.4251 11.322C61.0905 11.5278 61.7909 11.5952 62.4833 11.5199C63.1757 11.4446 63.8454 11.2283 64.451 10.8843C65.0566 10.5403 65.5853 10.0759 66.0046 9.51977C66.4239 8.96362 66.7247 8.32748 66.8887 7.65058C67.0527 6.97368 67.0763 6.27036 66.9581 5.58399C66.8399 4.89762 66.5823 4.24273 66.2013 3.65972C65.8203 3.0767 65.3239 2.5779 64.7427 2.19408C64.1615 1.81025 63.5079 1.54954 62.8221 1.428C58.8601 0.495938 54.8051 0.0168679 50.7351 0C40.6592 0.052344 30.8246 3.08816 22.4724 8.72433C14.1202 14.3605 7.62463 22.3444 3.80549 31.6686C-0.0136553 40.9928 -0.98525 51.2393 1.01332 61.1151C3.01189 70.9909 7.89105 80.0534 15.0351 87.159C24.5042 96.6324 37.3407 101.969 50.7351 102C64.2611 102 77.2332 96.6268 86.7975 87.0624C96.3619 77.4981 101.735 64.526 101.735 51C101.735 49.6474 101.198 48.3502 100.241 47.3938C99.2849 46.4373 97.9877 45.9 96.6351 45.9Z" fill="#2D2D2D"/>
</svg>
