<svg width="37" height="36" viewBox="0 0 37 36" fill="none" xmlns="http://www.w3.org/2000/svg">
<path d="M25.7791 16.5757C25.4356 15.5832 24.7913 14.7225 23.9358 14.1133C23.0802 13.5041 22.0561 13.1767 21.0058 13.1767C19.9556 13.1767 18.9314 13.5041 18.0759 14.1133C17.2204 14.7225 16.576 15.5832 16.2325 16.5757C15.4762 16.6771 14.7616 16.9821 14.1652 17.4582C13.5688 17.9343 13.1131 18.5635 12.8467 19.2787C12.5804 19.9938 12.5135 20.7679 12.6531 21.5181C12.7928 22.2683 13.1338 22.9665 13.6396 23.5379C13.7007 23.6455 13.7848 23.7383 13.8859 23.8098C13.9869 23.8812 14.1025 23.9294 14.2243 23.9511C14.3462 23.9728 14.4713 23.9673 14.5908 23.9351C14.7103 23.9029 14.8212 23.8447 14.9157 23.7647C15.0101 23.6848 15.0858 23.585 15.1373 23.4724C15.1888 23.3599 15.2148 23.2374 15.2135 23.1136C15.2122 22.9899 15.1837 22.8679 15.1299 22.7564C15.0762 22.645 14.9985 22.5467 14.9024 22.4687C14.5767 22.1046 14.3636 21.6538 14.2889 21.171C14.2142 20.6882 14.2812 20.1941 14.4817 19.7486C14.6822 19.3031 15.0076 18.9253 15.4184 18.661C15.8293 18.3966 16.308 18.2572 16.7966 18.2595H16.8807C17.0777 18.2634 17.2698 18.1982 17.4236 18.0751C17.5774 17.9521 17.6832 17.779 17.7226 17.586C17.8772 16.8247 18.2902 16.1404 18.8916 15.6488C19.493 15.1572 20.2459 14.8887 21.0227 14.8887C21.7994 14.8887 22.5523 15.1572 23.1537 15.6488C23.7552 16.1404 24.1682 16.8247 24.3227 17.586C24.3621 17.779 24.4679 17.9521 24.6217 18.0751C24.7755 18.1982 24.9676 18.2634 25.1646 18.2595H25.2151C25.7036 18.2572 26.1823 18.3966 26.5932 18.661C27.0041 18.9253 27.3295 19.3031 27.53 19.7486C27.7304 20.1941 27.7974 20.6882 27.7227 21.171C27.6481 21.6538 27.435 22.1046 27.1093 22.4687C27.0351 22.5519 26.9782 22.6489 26.9418 22.7543C26.9055 22.8596 26.8904 22.9711 26.8974 23.0823C26.9045 23.1935 26.9335 23.3022 26.9829 23.402C27.0323 23.5019 27.101 23.591 27.185 23.6642C27.3385 23.7995 27.536 23.8743 27.7407 23.8746C27.8602 23.8745 27.9783 23.8489 28.0872 23.7995C28.196 23.7502 28.2932 23.6782 28.372 23.5884C28.8919 23.018 29.2449 22.3156 29.3926 21.5581C29.5402 20.8006 29.4767 20.0171 29.209 19.2932C28.9414 18.5694 28.4799 17.933 27.875 17.4537C27.2701 16.9745 26.545 16.6707 25.7791 16.5757Z" fill="#FEE102"/>
<path d="M14.6112 7.67685C14.9195 7.67685 15.2151 7.55438 15.4331 7.33638C15.6511 7.11839 15.7736 6.82272 15.7736 6.51442V4.18956C15.7736 3.88126 15.6511 3.5856 15.4331 3.3676C15.2151 3.1496 14.9195 3.02713 14.6112 3.02713C14.3029 3.02713 14.0072 3.1496 13.7892 3.3676C13.5712 3.5856 13.4487 3.88126 13.4487 4.18956V6.51442C13.4487 6.82272 13.5712 7.11839 13.7892 7.33638C14.0072 7.55438 14.3029 7.67685 14.6112 7.67685Z" fill="#FEE102"/>
<path d="M7.63678 14.6516C7.63678 14.3433 7.51431 14.0476 7.29631 13.8296C7.07832 13.6116 6.78265 13.4892 6.47435 13.4892H4.14949C3.8412 13.4892 3.54553 13.6116 3.32753 13.8296C3.10953 14.0476 2.98706 14.3433 2.98706 14.6516C2.98706 14.9599 3.10953 15.2556 3.32753 15.4736C3.54553 15.6916 3.8412 15.814 4.14949 15.814H6.47435C6.78265 15.814 7.07832 15.6916 7.29631 15.4736C7.51431 15.2556 7.63678 14.9599 7.63678 14.6516Z" fill="#FEE102"/>
<path d="M7.89245 6.51438C7.66585 6.30012 7.36342 6.18464 7.05168 6.19336C6.73994 6.20208 6.44444 6.33428 6.23017 6.56088C6.01591 6.78748 5.90043 7.08991 5.90915 7.40165C5.91787 7.71338 6.05007 8.00889 6.27667 8.22315L7.95057 9.83893C8.0629 9.9474 8.19593 10.0321 8.34173 10.088C8.48752 10.144 8.64309 10.1699 8.79914 10.1644C8.95573 10.1638 9.11058 10.1316 9.2544 10.0697C9.39822 10.0077 9.52805 9.9174 9.63609 9.80406C9.8526 9.58626 9.97412 9.29164 9.97412 8.98455C9.97412 8.67745 9.8526 8.38283 9.63609 8.16503L7.89245 6.51438Z" fill="#FEE102"/>
<path d="M20.4236 10.1643C20.7229 10.1631 21.0102 10.0465 21.2257 9.83884L22.8996 8.22306C23.1038 8.0097 23.2191 7.72661 23.2221 7.4313C23.2252 7.13598 23.1157 6.85058 22.9159 6.63306C22.7162 6.41553 22.4411 6.2822 22.1466 6.26015C21.8521 6.23809 21.5602 6.32895 21.3303 6.51429L19.6564 8.16494C19.4399 8.38274 19.3184 8.67736 19.3184 8.98446C19.3184 9.29155 19.4399 9.58617 19.6564 9.80397C19.8577 10.0164 20.1316 10.145 20.4236 10.1643Z" fill="#FEE102"/>
<path d="M7.95036 19.4638L6.27646 21.0796C6.16751 21.1876 6.08103 21.3162 6.02202 21.4579C5.963 21.5995 5.93262 21.7514 5.93262 21.9049C5.93262 22.0584 5.963 22.2103 6.02202 22.3519C6.08103 22.4936 6.16751 22.6222 6.27646 22.7302C6.38549 22.8415 6.51576 22.9297 6.65953 22.9896C6.80331 23.0495 6.95766 23.0799 7.11341 23.079C7.39997 23.0814 7.67733 22.9779 7.89224 22.7883L9.56614 21.1726C9.78811 20.9583 9.91588 20.6646 9.92133 20.3562C9.92678 20.0477 9.80947 19.7497 9.5952 19.5277C9.38094 19.3058 9.08727 19.178 8.7788 19.1725C8.47033 19.1671 8.17233 19.2844 7.95036 19.4987V19.4638Z" fill="#FEE102"/>
<path d="M14.6114 10.0019C13.6918 10.0019 12.7928 10.2746 12.0281 10.7855C11.2635 11.2964 10.6675 12.0226 10.3156 12.8722C9.96368 13.7218 9.8716 14.6567 10.051 15.5587C10.2304 16.4607 10.6733 17.2892 11.3235 17.9394C11.9738 18.5897 12.8023 19.0325 13.7043 19.212C14.1578 18.582 14.9629 17.6232 15.8125 17.2712C16.6621 16.9193 17.3883 16.3233 17.8992 15.5587C18.4102 14.7941 18.4644 14.6516 19.2611 14.6516C19.2611 13.4184 18.7712 12.2357 17.8992 11.3637C17.0273 10.4917 15.8446 10.0019 14.6114 10.0019Z" fill="#FEE102"/>
</svg>
