<svg width="29" height="30" viewBox="0 0 29 30" fill="none" xmlns="http://www.w3.org/2000/svg">
<path d="M14.4996 15.7414C15.4556 15.7414 16.39 15.4579 17.1849 14.9268C17.9797 14.3957 18.5992 13.6409 18.965 12.7577C19.3309 11.8745 19.4266 10.9027 19.2401 9.96511C19.0536 9.02753 18.5933 8.16631 17.9173 7.49036C17.2414 6.81441 16.3801 6.35408 15.4426 6.16758C14.505 5.98109 13.5332 6.0768 12.65 6.44262C11.7668 6.80845 11.0119 7.42795 10.4809 8.22279C9.94976 9.01762 9.66629 9.9521 9.66629 10.908C9.66629 12.1899 10.1755 13.4193 11.0819 14.3257C11.9884 15.2322 13.2177 15.7414 14.4996 15.7414ZM14.4996 8.49138C14.9776 8.49138 15.4448 8.63311 15.8423 8.89866C16.2397 9.1642 16.5494 9.54164 16.7323 9.98322C16.9152 10.4248 16.9631 10.9107 16.8699 11.3795C16.7766 11.8483 16.5464 12.2789 16.2085 12.6169C15.8705 12.9549 15.4399 13.185 14.9711 13.2783C14.5023 13.3715 14.0164 13.3237 13.5748 13.1408C13.1332 12.9578 12.7558 12.6481 12.4902 12.2507C12.2247 11.8533 12.083 11.386 12.083 10.908C12.083 10.2671 12.3376 9.65241 12.7908 9.1992C13.244 8.74599 13.8587 8.49138 14.4996 8.49138Z" fill="#2D2D2D"/>
<path d="M14.4996 16.708C12.2563 16.708 10.1049 17.5992 8.51868 19.1854C6.93243 20.7716 6.04129 22.9231 6.04129 25.1663C6.04129 25.4868 6.1686 25.7942 6.3952 26.0208C6.62181 26.2474 6.92915 26.3747 7.24962 26.3747C7.57009 26.3747 7.87744 26.2474 8.10404 26.0208C8.33065 25.7942 8.45796 25.4868 8.45796 25.1663C8.45796 23.564 9.09449 22.0273 10.2275 20.8942C11.3606 19.7612 12.8973 19.1247 14.4996 19.1247C16.102 19.1247 17.6387 19.7612 18.7717 20.8942C19.9048 22.0273 20.5413 23.564 20.5413 25.1663C20.5413 25.4868 20.6686 25.7942 20.8952 26.0208C21.1218 26.2474 21.4292 26.3747 21.7496 26.3747C22.0701 26.3747 22.3774 26.2474 22.604 26.0208C22.8307 25.7942 22.958 25.4868 22.958 25.1663C22.958 22.9231 22.0668 20.7716 20.4806 19.1854C18.8943 17.5992 16.7429 16.708 14.4996 16.708Z" fill="#2D2D2D"/>
<circle cx="14.5" cy="14.5" r="13.35" stroke="#2D2D2D" stroke-width="2.3"/>
</svg>
